<svg width="100" height="100" viewBox="0 0 100 100" fill="none" xmlns="http://www.w3.org/2000/svg">
<path fill-rule="evenodd" clip-rule="evenodd" d="M50 10C77.7375 -18.5125 147.086 29.5941 49.9987 93.7503C-47.0888 29.6003 22.2625 -18.5125 50 10Z" fill="#E50914"/>
<path d="M50 10C49.2371 10.7629 29 31.0029 29 46.1925C29 57.6366 38.3634 67 49.8076 67C61.2518 67 70.6152 57.6366 70.6152 46.1925C70.6152 31.0723 50.7629 10.7629 50 10ZM39.4038 42.7245C41.3458 42.7245 41.5 43.5 41.5 46C40.8951 50.5834 45.5995 55.2473 50 54.5C52.5 54.5 53.2755 54.6542 53.2755 56.5963C53.2755 58.5383 51 58.5 48.5 58.5C41.4061 57.0286 37.8497 52.2408 37.2724 46.1925C37.2724 44.2504 37.4618 42.7245 39.4038 42.7245Z" fill="white"/>
</svg>
