<svg width="100" height="177" viewBox="0 0 100 177" fill="none" xmlns="http://www.w3.org/2000/svg">
<rect x="4" y="90.9597" width="92" height="68.0405" rx="20" fill="#D20D1A"/>
<path d="M4 78.1516C4 67.7383 10.9229 58.5946 20.9457 55.7697C27.2084 54.0045 33.9241 54.944 39.462 58.36L46.9627 62.9866C59.076 70.4585 74.0865 71.5046 87.1192 65.7853L94.9773 62.3368C95.0167 62.3195 95.054 62.2979 95.0885 62.2722C95.4652 61.9922 96 62.261 96 62.7304V63.3851V113C96 138.405 75.4051 159 50 159C24.5949 159 4 138.405 4 113V78.1516Z" fill="#D20D1A"/>
<rect x="0.5" y="13.5" width="99" height="149" rx="19.5" stroke="#676363"/>
<mask id="path-4-inside-1_337_38" fill="white">
<path d="M47 172H54V176.2C54 176.642 53.6418 177 53.2 177H47.8C47.3582 177 47 176.642 47 176.2V172Z"/>
</mask>
<path d="M47 172H54V176.2C54 176.642 53.6418 177 53.2 177H47.8C47.3582 177 47 176.642 47 176.2V172Z" stroke="#676363" stroke-width="2" mask="url(#path-4-inside-1_337_38)"/>
<mask id="path-5-inside-2_337_38" fill="white">
<path d="M41 163H60V170.4C60 171.154 60 171.531 59.7657 171.766C59.5314 172 59.1542 172 58.4 172H42.6C41.8458 172 41.4686 172 41.2343 171.766C41 171.531 41 171.154 41 170.4V163Z"/>
</mask>
<path d="M41 163H60V170.4C60 171.154 60 171.531 59.7657 171.766C59.5314 172 59.1542 172 58.4 172H42.6C41.8458 172 41.4686 172 41.2343 171.766C41 171.531 41 171.154 41 170.4V163Z" stroke="#676363" stroke-width="2" mask="url(#path-5-inside-2_337_38)"/>
<path d="M47.5 170H53.5V176H47.5V170Z" fill="white"/>
<path d="M41.5 162H59.5V171H41.5V162Z" fill="white"/>
<circle cx="50" cy="7" r="6.5" fill="white" stroke="#676363"/>
<circle cx="50" cy="7" r="4.5" fill="white" stroke="#676363"/>
<path d="M45.5 11L46.799 13.25H44.201L45.5 11Z" fill="#676363"/>
<path d="M54.5 11L55.799 13.25H53.201L54.5 11Z" fill="#676363"/>
</svg>
