<svg width="100" height="177" viewBox="0 0 100 177" fill="none" xmlns="http://www.w3.org/2000/svg">
<rect x="4" y="117.277" width="92" height="41.723" rx="20" fill="#D20D1A"/>
<path d="M4 119.147C4 107.289 12.5352 97.152 24.2199 95.1325C28.5099 94.391 32.9201 94.8123 36.9921 96.3525L47.05 100.157C59.5699 104.892 73.2623 105.569 86.188 102.091L94.985 99.7233C95.0193 99.7141 95.0528 99.702 95.0852 99.6873C95.5134 99.4921 96 99.8051 96 100.276V100.368V136.24C96 148.81 85.8098 159 73.2396 159H28C14.7452 159 4 148.255 4 135V119.147Z" fill="#D20D1A"/>
<rect x="0.5" y="13.5" width="99" height="149" rx="19.5" stroke="#676363"/>
<mask id="path-4-inside-1_339_31" fill="white">
<path d="M47 172H54V176.2C54 176.642 53.6418 177 53.2 177H47.8C47.3582 177 47 176.642 47 176.2V172Z"/>
</mask>
<path d="M47 172H54V176.2C54 176.642 53.6418 177 53.2 177H47.8C47.3582 177 47 176.642 47 176.2V172Z" stroke="#676363" stroke-width="2" mask="url(#path-4-inside-1_339_31)"/>
<mask id="path-5-inside-2_339_31" fill="white">
<path d="M41 163H60V170.4C60 171.154 60 171.531 59.7657 171.766C59.5314 172 59.1542 172 58.4 172H42.6C41.8458 172 41.4686 172 41.2343 171.766C41 171.531 41 171.154 41 170.4V163Z"/>
</mask>
<path d="M41 163H60V170.4C60 171.154 60 171.531 59.7657 171.766C59.5314 172 59.1542 172 58.4 172H42.6C41.8458 172 41.4686 172 41.2343 171.766C41 171.531 41 171.154 41 170.4V163Z" stroke="#676363" stroke-width="2" mask="url(#path-5-inside-2_339_31)"/>
<path d="M47.5 170H53.5V176H47.5V170Z" fill="white"/>
<path d="M41.5 162H59.5V171H41.5V162Z" fill="white"/>
<circle cx="50" cy="7" r="6.5" fill="white" stroke="#676363"/>
<circle cx="50" cy="7" r="4.5" fill="white" stroke="#676363"/>
<path d="M45.5 11L46.799 13.25H44.201L45.5 11Z" fill="#676363"/>
<path d="M54.5 11L55.799 13.25H53.201L54.5 11Z" fill="#676363"/>
</svg>
