<svg width="100" height="177" viewBox="0 0 100 177" fill="none" xmlns="http://www.w3.org/2000/svg">
<path d="M4 145.177C4 141.699 5.31083 138.35 7.67107 135.796L8.17644 135.249C13.1722 129.843 21.2494 128.625 27.6166 132.319L44.7948 142.284C54.9405 148.169 67.1386 149.37 78.2372 145.576L94.8893 139.884C94.9767 139.854 95.0684 139.839 95.1608 139.839H95.516C95.7833 139.839 96 140.055 96 140.323C96 150.638 87.6379 159 77.3227 159H17.8229C10.1887 159 4 152.811 4 145.177Z" fill="#D20D1A"/>
<rect x="0.5" y="13.5" width="99" height="149" rx="19.5" stroke="#676363"/>
<mask id="path-3-inside-1_337_49" fill="white">
<path d="M47 172H54V176.2C54 176.642 53.6418 177 53.2 177H47.8C47.3582 177 47 176.642 47 176.2V172Z"/>
</mask>
<path d="M47 172H54V176.2C54 176.642 53.6418 177 53.2 177H47.8C47.3582 177 47 176.642 47 176.2V172Z" stroke="#676363" stroke-width="2" mask="url(#path-3-inside-1_337_49)"/>
<mask id="path-4-inside-2_337_49" fill="white">
<path d="M41 163H60V170.4C60 171.154 60 171.531 59.7657 171.766C59.5314 172 59.1542 172 58.4 172H42.6C41.8458 172 41.4686 172 41.2343 171.766C41 171.531 41 171.154 41 170.4V163Z"/>
</mask>
<path d="M41 163H60V170.4C60 171.154 60 171.531 59.7657 171.766C59.5314 172 59.1542 172 58.4 172H42.6C41.8458 172 41.4686 172 41.2343 171.766C41 171.531 41 171.154 41 170.4V163Z" stroke="#676363" stroke-width="2" mask="url(#path-4-inside-2_337_49)"/>
<path d="M47.5 170H53.5V176H47.5V170Z" fill="white"/>
<path d="M41.5 162H59.5V171H41.5V162Z" fill="white"/>
<circle cx="50" cy="7" r="6.5" fill="white" stroke="#676363"/>
<circle cx="50" cy="7" r="4.5" fill="white" stroke="#676363"/>
<path d="M45.5 11L46.799 13.25H44.201L45.5 11Z" fill="#676363"/>
<path d="M54.5 11L55.799 13.25H53.201L54.5 11Z" fill="#676363"/>
</svg>
