<svg width="100" height="177" viewBox="0 0 100 177" fill="none" xmlns="http://www.w3.org/2000/svg">
<rect x="4" y="65.9258" width="92" height="93.0743" rx="20" fill="#D20D1A"/>
<path d="M4 39.7275C4 30.4449 9.71293 22.1194 18.3742 18.7801C26.0202 15.8322 34.6651 17.2845 40.9282 22.5691L46.8652 27.5786C58.4929 37.3898 75.0726 38.7209 88.1167 30.8905L94.9465 26.7906C95.0062 26.7547 95.071 26.728 95.1387 26.7114C95.5769 26.6039 96 26.9356 96 27.3869V28.2061V113C96 138.405 75.4051 159 50 159C24.5949 159 4 138.405 4 113V39.7275Z" fill="#D20D1A"/>
<rect x="0.5" y="13.5" width="99" height="149" rx="19.5" stroke="#676363"/>
<mask id="path-4-inside-1_336_7" fill="white">
<path d="M47 172H54V176.2C54 176.642 53.6418 177 53.2 177H47.8C47.3582 177 47 176.642 47 176.2V172Z"/>
</mask>
<path d="M47 172H54V176.2C54 176.642 53.6418 177 53.2 177H47.8C47.3582 177 47 176.642 47 176.2V172Z" stroke="#676363" stroke-width="2" mask="url(#path-4-inside-1_336_7)"/>
<mask id="path-5-inside-2_336_7" fill="white">
<path d="M41 163H60V170.4C60 171.154 60 171.531 59.7657 171.766C59.5314 172 59.1542 172 58.4 172H42.6C41.8458 172 41.4686 172 41.2343 171.766C41 171.531 41 171.154 41 170.4V163Z"/>
</mask>
<path d="M41 163H60V170.4C60 171.154 60 171.531 59.7657 171.766C59.5314 172 59.1542 172 58.4 172H42.6C41.8458 172 41.4686 172 41.2343 171.766C41 171.531 41 171.154 41 170.4V163Z" stroke="#676363" stroke-width="2" mask="url(#path-5-inside-2_336_7)"/>
<path d="M47.5 170H53.5V176H47.5V170Z" fill="white"/>
<path d="M41.5 162H59.5V171H41.5V162Z" fill="white"/>
<circle cx="50" cy="7" r="6.5" fill="white" stroke="#676363"/>
<circle cx="50" cy="7" r="4.5" fill="white" stroke="#676363"/>
<path d="M45.5 11L46.799 13.25H44.201L45.5 11Z" fill="#676363"/>
<path d="M54.5 11L55.799 13.25H53.201L54.5 11Z" fill="#676363"/>
</svg>
